<svg version="1.1" id="Layer_1" xmlns="http://www.w3.org/2000/svg" xmlns:xlink="http://www.w3.org/1999/xlink" x="0px" y="0px" viewBox="0 0 128 128" style="enable-background:new 0 0 128 128;" xml:space="preserve">

<g stroke="none" fill="#f44336" stroke-width="1px">
	<circle cx="64" cy="64" r="50" style="" stroke="none" fill="#ffffff" stroke-width="1px"></circle>
</g>
<g stroke="none" fill="#f44336" stroke-width="1px">
	<path d="M64,117c-29.2,0-53-23.8-53-53s23.8-53,53-53s53,23.8,53,53S93.2,117,64,117z M64,17c-25.9,0-47,21.1-47,47
		s21.1,47,47,47s47-21.1,47-47S89.9,17,64,17z" style="" stroke="none" fill="#444b54" stroke-width="1px"></path>
</g>
<g stroke="none" fill="#f44336" stroke-width="1px">
	<path d="M64,82c-1.7,0-3-1.3-3-3V49c0-1.7,1.3-3,3-3s3,1.3,3,3v30C67,80.7,65.7,82,64,82z" style="" stroke="none" fill="#ff697b" stroke-width="1px"></path>
</g>
<g stroke="none" fill="#f44336" stroke-width="1px">
	<path d="M79,67H49c-1.7,0-3-1.3-3-3s1.3-3,3-3h30c1.7,0,3,1.3,3,3S80.7,67,79,67z" style="" stroke="none" fill="#ff697b" stroke-width="1px"></path>
</g>
</svg>