<svg xmlns="http://www.w3.org/2000/svg" xmlns:xlink="http://www.w3.org/1999/xlink" viewBox="0 0 48 48" version="1.1">
<g id="surface1" stroke="none" fill="#000000" stroke-width="1px">
<path style="" d="M 42 42 L 6 42 L 6 10 C 6 7.800781 7.800781 6 10 6 L 38 6 C 40.199219 6 42 7.800781 42 10 Z " stroke="none" fill="#90caf9" stroke-width="1px"></path>
<path style="" d="M 6 42 L 42 42 L 42 44 L 6 44 Z " stroke="none" fill="#64b5f6" stroke-width="1px"></path>
<path style="" d="M 31 27 L 37 27 L 37 32 L 31 32 Z " stroke="none" fill="#1565c0" stroke-width="1px"></path>
<path style="" d="M 21 27 L 27 27 L 27 32 L 21 32 Z " stroke="none" fill="#1565c0" stroke-width="1px"></path>
<path style="" d="M 11 27 L 17 27 L 17 32 L 11 32 Z " stroke="none" fill="#1565c0" stroke-width="1px"></path>
<path style="" d="M 31 35 L 37 35 L 37 40 L 31 40 Z " stroke="none" fill="#1565c0" stroke-width="1px"></path>
<path style="" d="M 11 35 L 17 35 L 17 40 L 11 40 Z " stroke="none" fill="#1565c0" stroke-width="1px"></path>
<path style="" d="M 31 19 L 37 19 L 37 24 L 31 24 Z " stroke="none" fill="#1565c0" stroke-width="1px"></path>
<path style="" d="M 21 19 L 27 19 L 27 24 L 21 24 Z " stroke="none" fill="#1565c0" stroke-width="1px"></path>
<path style="" d="M 11 19 L 17 19 L 17 24 L 11 24 Z " stroke="none" fill="#1565c0" stroke-width="1px"></path>
<path style="" d="M 31 11 L 37 11 L 37 16 L 31 16 Z " stroke="none" fill="#1565c0" stroke-width="1px"></path>
<path style="" d="M 21 11 L 27 11 L 27 16 L 21 16 Z " stroke="none" fill="#1565c0" stroke-width="1px"></path>
<path style="" d="M 11 11 L 17 11 L 17 16 L 11 16 Z " stroke="none" fill="#1565c0" stroke-width="1px"></path>
<path style="" d="M 21 35 L 27 35 L 27 44 L 21 44 Z " stroke="none" fill="#1565c0" stroke-width="1px"></path>
</g>
</svg>