<svg xmlns="http://www.w3.org/2000/svg" xmlns:xlink="http://www.w3.org/1999/xlink" viewBox="0 0 64 64" version="1.1">
<g id="surface1" stroke="none" fill="#f44336" stroke-width="1px">
<path style="" d="M 7 18 L 7 47 C 7 52.519531 18.191406 57 32 57 C 45.808594 57 57 52.519531 57 47 L 57 18 Z " stroke="none" fill="#c2cde7" stroke-width="1px"></path>
<path style="" d="M 14 18 L 7 18 L 7 47 C 7 49.691406 9.671875 52.140625 14 53.941406 Z " stroke="none" fill="#ced8ed" stroke-width="1px"></path>
<path style="" d="M 42 18 L 42 56.171875 C 50.828125 54.621094 57 51.101563 57 47 L 57 18 Z " stroke="none" fill="#b5c4e0" stroke-width="1px"></path>
<path style="" d="M 57 17 C 57 11.476563 45.808594 7 32 7 C 18.191406 7 7 11.476563 7 17 C 7 22.523438 18.191406 27 32 27 C 45.808594 27 57 22.523438 57 17 Z " stroke="none" fill="#ced8ed" stroke-width="1px"></path>
<path style="" d="M 32 6 C 17.421875 6 6 10.828125 6 17 L 6 47 C 6 53.171875 17.421875 58 32 58 C 46.578125 58 58 53.171875 58 47 L 58 17 C 58 10.828125 46.578125 6 32 6 Z M 56 27 C 56 31.351563 46.359375 36 32 36 C 17.640625 36 8 31.351563 8 27 L 8 21.308594 C 11.890625 25.308594 21.050781 28 32 28 C 42.949219 28 52.109375 25.28125 56 21.308594 Z M 32 8 C 46.359375 8 56 12.648438 56 17 C 56 21.351563 46.359375 26 32 26 C 17.640625 26 8 21.351563 8 17 C 8 12.648438 17.640625 8 32 8 Z M 32 56 C 17.640625 56 8 51.351563 8 47 L 8 41.289063 C 11.210938 44.589844 18.078125 47.070313 26.859375 47.789063 L 26.941406 47.789063 C 27.492188 47.8125 27.957031 47.382813 27.980469 46.828125 C 28.003906 46.277344 27.574219 45.8125 27.019531 45.789063 C 16.179688 44.910156 8 41.121094 8 37 L 8 31.308594 C 11.890625 35.308594 21.050781 38 32 38 C 42.949219 38 52.109375 35.28125 56 31.308594 L 56 37 C 56 38.730469 54.46875 40.519531 51.679688 42 C 51.195313 42.277344 51.023438 42.894531 51.300781 43.378906 C 51.574219 43.867188 52.195313 44.035156 52.679688 43.761719 C 53.898438 43.121094 55.015625 42.304688 56 41.339844 L 56 47 C 56 51.351563 46.359375 56 32 56 Z " stroke="none" fill="#8d6c9f" stroke-width="1px"></path>
<path style="" d="M 20.179688 13.300781 C 20.257813 13.308594 20.339844 13.308594 20.421875 13.300781 C 24.214844 12.410156 28.101563 11.972656 32 12 C 33.328125 12 34.648438 12 35.941406 12.128906 C 36.492188 12.164063 36.96875 11.746094 37.003906 11.195313 C 37.039063 10.644531 36.621094 10.164063 36.070313 10.128906 C 34.738281 10 33.371094 10 32 10 C 27.941406 9.957031 23.890625 10.40625 19.941406 11.328125 C 19.386719 11.394531 18.992188 11.898438 19.058594 12.449219 C 19.125 13.003906 19.628906 13.394531 20.179688 13.328125 Z " stroke="none" fill="#8d6c9f" stroke-width="1px"></path>
<path style="" d="M 40.449219 12.640625 C 41.550781 12.820313 42.601563 13.03125 43.570313 13.269531 C 44.105469 13.40625 44.648438 13.082031 44.785156 12.546875 C 44.921875 12.007813 44.597656 11.464844 44.058594 11.328125 C 43.058594 11.070313 41.929688 10.851563 40.769531 10.660156 C 40.21875 10.570313 39.699219 10.949219 39.609375 11.5 C 39.523438 12.050781 39.898438 12.570313 40.449219 12.660156 Z " stroke="none" fill="#8d6c9f" stroke-width="1px"></path>
<path style="" d="M 32 44 C 31.449219 44 31 44.449219 31 45 L 31 47 C 31 47.550781 31.449219 48 32 48 C 32.550781 48 33 47.550781 33 47 L 33 45 C 33 44.449219 32.550781 44 32 44 Z " stroke="none" fill="#8d6c9f" stroke-width="1px"></path>
<path style="" d="M 37 43.800781 C 36.449219 43.800781 36 44.246094 36 44.800781 L 36 46.800781 C 36 47.351563 36.449219 47.800781 37 47.800781 C 37.550781 47.800781 38 47.351563 38 46.800781 L 38 44.800781 C 38 44.246094 37.550781 43.800781 37 43.800781 Z " stroke="none" fill="#8d6c9f" stroke-width="1px"></path>
<path style="" d="M 42 43.101563 C 41.449219 43.101563 41 43.546875 41 44.101563 L 41 46.101563 C 41 46.652344 41.449219 47.101563 42 47.101563 C 42.550781 47.101563 43 46.652344 43 46.101563 L 43 44.101563 C 43 43.546875 42.550781 43.101563 42 43.101563 Z " stroke="none" fill="#8d6c9f" stroke-width="1px"></path>
<path style="" d="M 47 42 C 46.449219 42 46 42.449219 46 43 L 46 45 C 46 45.550781 46.449219 46 47 46 C 47.550781 46 48 45.550781 48 45 L 48 43 C 48 42.449219 47.550781 42 47 42 Z " stroke="none" fill="#8d6c9f" stroke-width="1px"></path>
</g>
</svg>