<svg xmlns="http://www.w3.org/2000/svg" xmlns:xlink="http://www.w3.org/1999/xlink" viewBox="0 0 48 48" version="1.1">
<g id="surface1" stroke="none" fill="#000000" stroke-width="1px">
<path style="" d="M 39 43 L 9 43 C 6.800781 43 5 41.199219 5 39 L 5 9 C 5 6.800781 6.800781 5 9 5 L 39 5 C 41.199219 5 43 6.800781 43 9 L 43 39 C 43 41.199219 41.199219 43 39 43 Z " stroke="none" fill="#ede7f6" stroke-width="1px"></path>
<path style="" d="M 32 22.5 C 32 23.300781 31.300781 24 30.5 24 C 29.699219 24 29 23.300781 29 22.5 C 29 21.699219 29.699219 21 30.5 21 C 31.300781 21 32 21.699219 32 22.5 M 19 22.5 C 19 21.699219 18.300781 21 17.5 21 C 16.699219 21 16 21.699219 16 22.5 C 16 23.300781 16.699219 24 17.5 24 C 18.300781 24 19 23.300781 19 22.5 " stroke="none" fill="#ffa726" stroke-width="1px"></path>
<path style="" d="M 24 35 C 20 35 20 31 20 31 L 20 27 L 28 27 L 28 31 C 28 31 28 35 24 35 Z " stroke="none" fill="#ff9800" stroke-width="1px"></path>
<path style="" d="M 31 18.699219 C 31 12.800781 17 14.898438 17 18.699219 L 17 23.101563 C 17 26.898438 20.101563 30 24 30 C 27.898438 30 31 26.898438 31 23.101563 Z " stroke="none" fill="#ffb74d" stroke-width="1px"></path>
<path style="" d="M 24 11 C 19.101563 11 16 15.300781 16 19.199219 L 16 21 L 18 23 L 18 19 L 27.199219 16 L 30 19 L 30 23 L 32 21 L 32 20.199219 C 32 17 31.199219 13.398438 27.199219 12.601563 L 26.398438 11 Z " stroke="none" fill="#424242" stroke-width="1px"></path>
<path style="" d="M 26 22 C 26 21.398438 26.398438 21 27 21 C 27.601563 21 28 21.398438 28 22 C 28 22.601563 27.601563 23 27 23 C 26.398438 23 26 22.601563 26 22 M 20 22 C 20 22.601563 20.398438 23 21 23 C 21.601563 23 22 22.601563 22 22 C 22 21.398438 21.601563 21 21 21 C 20.398438 21 20 21.398438 20 22 " stroke="none" fill="#784719" stroke-width="1px"></path>
<path style="" d="M 24 42 L 20 31 L 24 32 L 28 31 Z " stroke="none" fill="#ffffff" stroke-width="1px"></path>
<path style="" d="M 23.199219 34.398438 L 22 38.101563 L 24 42 L 26 38.101563 L 24.800781 34.398438 L 25.699219 33.601563 L 24 32 L 22.398438 33.601563 Z " stroke="none" fill="#d32f2f" stroke-width="1px"></path>
<path style="" d="M 28 31 L 24 41 L 20 31 C 20 31 11 31.898438 11 43 L 37 43 C 37 31.898438 28 31 28 31 " stroke="none" fill="#3f51b5" stroke-width="1px"></path>
</g>
</svg>