<?xml version="1.0" standalone="no"?><!-- Generator: Gravit.io --><svg xmlns="http://www.w3.org/2000/svg" xmlns:xlink="http://www.w3.org/1999/xlink" style="isolation:isolate" viewBox="76 378.167 240 115.333" width="240" height="115.333"><g><g><path d=" M 249.642 439.915 C 238.466 428.739 238.466 410.592 249.642 399.416 C 260.818 388.24 278.965 388.24 290.141 399.416 C 301.317 410.592 301.317 428.739 290.141 439.915 C 278.965 451.091 260.818 451.091 249.642 439.915 Z " fill="rgb(255,255,255)"/></g><g><path d=" M 269.904 445.818 C 268.513 445.818 267.45 444.754 267.45 443.363 C 267.45 441.972 268.513 440.908 269.904 440.908 C 275.55 440.908 280.95 438.699 284.959 434.69 C 290.196 429.453 292.323 422.008 290.605 414.726 C 290.278 413.417 291.096 412.108 292.405 411.78 C 293.714 411.453 295.023 412.271 295.351 413.58 C 297.478 422.499 294.941 431.744 288.478 438.208 C 283.487 443.118 276.941 445.818 269.904 445.818 Z " fill="rgb(17,204,255)"/><path d=" M 286.759 405.48 C 286.105 405.48 285.532 405.235 285.041 404.744 L 285.041 404.662 C 284.059 403.68 284.059 402.125 285.041 401.144 C 286.023 400.162 287.496 400.162 288.478 401.144 L 288.559 401.225 C 289.541 402.207 289.541 403.762 288.559 404.744 C 288.068 405.235 287.414 405.48 286.759 405.48 Z " fill="rgb(17,204,255)"/></g><path d=" M 269.904 450.727 C 261.968 450.727 253.949 447.699 247.895 441.645 C 235.785 429.535 235.785 409.817 247.895 397.707 C 260.004 385.598 279.723 385.598 291.832 397.707 C 291.832 397.707 291.832 397.707 291.832 397.707 C 304.024 409.817 304.024 429.535 291.914 441.645 C 285.859 447.699 277.923 450.727 269.904 450.727 Z  M 269.904 393.534 C 263.195 393.534 256.486 396.071 251.413 401.225 C 241.185 411.453 241.185 428.063 251.413 438.29 C 261.64 448.354 278.25 448.354 288.478 438.208 C 298.705 427.981 298.705 411.371 288.478 401.144 C 283.323 396.071 276.614 393.534 269.904 393.534 Z " fill="rgb(68,75,84)"/><path d=" M 313.791 453.13 L 303.4 442.739 C 302.009 441.348 300.127 440.612 298.163 440.612 C 297.018 440.612 295.954 440.857 294.972 441.348 L 292.927 439.303 C 291.945 438.321 290.39 438.321 289.49 439.303 C 288.508 440.284 288.508 441.839 289.49 442.739 L 291.536 444.785 C 290.227 447.485 290.717 450.921 292.927 453.13 L 303.4 463.522 C 304.872 464.994 306.754 465.649 308.636 465.649 C 310.518 465.649 312.4 464.912 313.873 463.522 C 313.873 463.522 313.873 463.522 313.873 463.522 C 315.264 462.131 316 460.249 316 458.285 C 316 456.403 315.182 454.521 313.791 453.13 Z  M 310.354 460.085 C 310.354 460.085 310.354 460.085 310.354 460.085 C 309.373 461.067 307.818 461.067 306.918 460.085 L 296.445 449.694 C 295.463 448.712 295.463 447.157 296.445 446.257 C 296.445 446.257 296.445 446.257 296.445 446.257 C 296.445 446.257 296.445 446.257 296.445 446.257 C 296.936 445.766 297.509 445.521 298.163 445.521 C 298.818 445.521 299.472 445.766 299.881 446.257 L 310.273 456.649 C 310.763 457.14 311.009 457.712 311.009 458.367 C 311.009 459.021 310.845 459.594 310.354 460.085 Z " fill="rgb(68,75,84)"/></g><path d=" M 77.504 436.135 L 77.504 436.135 L 77.504 436.135 Q 77.504 431.214 77.538 426.839 L 77.538 426.839 L 77.538 426.839 Q 77.572 422.464 77.743 418.191 L 77.743 418.191 L 77.743 418.191 Q 77.914 413.919 78.188 409.509 L 78.188 409.509 L 78.188 409.509 Q 78.461 405.1 78.939 399.973 L 78.939 399.973 L 80.922 399.973 L 80.922 426.223 L 95.824 426.223 L 95.824 426.223 Q 95.756 423.762 95.756 420.925 L 95.756 420.925 L 95.756 420.925 Q 95.756 418.089 95.688 415.183 L 95.688 415.183 L 95.688 415.183 Q 95.619 412.278 95.585 409.509 L 95.585 409.509 L 95.585 409.509 Q 95.551 406.741 95.551 404.28 L 95.551 404.28 L 95.551 404.28 Q 95.551 401.819 95.551 399.973 L 95.551 399.973 L 95.551 399.973 Q 95.551 398.128 95.551 397.102 L 95.551 397.102 L 95.551 397.102 Q 95.756 397.102 96.269 397.205 L 96.269 397.205 L 96.269 397.205 Q 96.781 397.307 97.294 397.478 L 97.294 397.478 L 97.294 397.478 Q 97.807 397.649 98.217 397.957 L 98.217 397.957 L 98.217 397.957 Q 98.627 398.264 98.627 398.743 L 98.627 398.743 L 98.627 449.944 L 96.508 449.534 L 96.508 449.534 Q 96.371 449.534 96.303 448.645 L 96.303 448.645 L 96.303 448.645 Q 96.234 447.757 96.2 446.424 L 96.2 446.424 L 96.2 446.424 Q 96.166 445.09 96.132 443.347 L 96.132 443.347 L 96.132 443.347 Q 96.098 441.604 96.063 439.929 L 96.063 439.929 L 96.063 439.929 Q 96.029 438.255 95.995 436.751 L 95.995 436.751 L 95.995 436.751 Q 95.961 435.247 95.961 434.221 L 95.961 434.221 L 95.961 434.221 Q 95.961 433.264 95.961 431.624 L 95.961 431.624 L 95.961 431.624 Q 95.961 429.983 95.893 427.864 L 95.893 427.864 L 80.922 430.53 L 80.785 450.012 L 77.504 450.012 L 77.504 450.012 Q 77.504 449.944 77.504 449.055 L 77.504 449.055 L 77.504 449.055 Q 77.504 448.167 77.504 446.834 L 77.504 446.834 L 77.504 446.834 Q 77.504 445.501 77.504 443.894 L 77.504 443.894 L 77.504 443.894 Q 77.504 442.288 77.504 440.784 L 77.504 440.784 L 77.504 440.784 Q 77.504 439.28 77.504 438.049 L 77.504 438.049 L 77.504 438.049 Q 77.504 436.819 77.504 436.135 Z  M 114.691 407.288 L 114.691 407.288 L 114.691 407.288 Q 117.221 407.288 119.101 408.757 L 119.101 408.757 L 119.101 408.757 Q 120.98 410.227 122.382 412.688 L 122.382 412.688 L 122.382 412.688 Q 123.783 415.149 124.74 418.362 L 124.74 418.362 L 124.74 418.362 Q 125.697 421.575 126.313 425.095 L 126.313 425.095 L 126.313 425.095 Q 126.928 428.616 127.27 432.205 L 127.27 432.205 L 127.27 432.205 Q 127.611 435.794 127.748 438.938 L 127.748 438.938 L 127.748 438.938 Q 127.885 442.083 127.919 444.612 L 127.919 444.612 L 127.919 444.612 Q 127.953 447.141 127.953 448.577 L 127.953 448.577 L 126.313 448.577 L 123.715 434.153 L 123.715 434.153 Q 123.373 433.811 122.177 433.743 L 122.177 433.743 L 122.177 433.743 Q 120.98 433.674 119.374 433.811 L 119.374 433.811 L 119.374 433.811 Q 117.768 433.948 115.888 434.187 L 115.888 434.187 L 115.888 434.187 Q 114.008 434.426 112.333 434.529 L 112.333 434.529 L 112.333 434.529 Q 110.658 434.632 109.291 434.597 L 109.291 434.597 L 109.291 434.597 Q 107.924 434.563 107.309 434.153 L 107.309 434.153 L 107.309 448.577 L 103.822 448.577 L 103.822 448.577 Q 103.822 448.372 103.856 447.791 L 103.856 447.791 L 103.856 447.791 Q 103.891 447.21 103.891 446.594 L 103.891 446.594 L 103.891 446.594 Q 103.891 445.979 103.959 445.432 L 103.959 445.432 L 103.959 445.432 Q 104.027 444.885 104.027 444.68 L 104.027 444.68 L 104.027 444.68 Q 104.438 440.715 104.677 436.648 L 104.677 436.648 L 104.677 436.648 Q 104.916 432.581 105.258 428.753 L 105.258 428.753 L 105.258 428.753 Q 105.6 424.924 106.181 421.438 L 106.181 421.438 L 106.181 421.438 Q 106.762 417.952 107.855 415.115 L 107.855 415.115 L 107.855 415.115 Q 108.949 412.278 110.59 410.261 L 110.59 410.261 L 110.59 410.261 Q 112.23 408.245 114.691 407.288 Z  M 115.785 410.432 L 115.785 410.432 L 115.785 410.432 Q 114.008 410.432 112.812 411.697 L 112.812 411.697 L 112.812 411.697 Q 111.615 412.962 110.863 414.978 L 110.863 414.978 L 110.863 414.978 Q 110.111 416.995 109.701 419.456 L 109.701 419.456 L 109.701 419.456 Q 109.291 421.917 109.154 424.275 L 109.154 424.275 L 109.154 424.275 Q 109.018 426.633 108.983 428.65 L 108.983 428.65 L 108.983 428.65 Q 108.949 430.667 108.949 431.76 L 108.949 431.76 L 108.949 431.76 Q 112.299 431.76 115.785 431.248 L 115.785 431.248 L 115.785 431.248 Q 119.271 430.735 122.348 430.188 L 122.348 430.188 L 122.348 430.188 Q 122.416 429.915 122.45 429.299 L 122.45 429.299 L 122.45 429.299 Q 122.484 428.684 122.519 427.932 L 122.519 427.932 L 122.519 427.932 Q 122.553 427.18 122.587 426.497 L 122.587 426.497 L 122.587 426.497 Q 122.621 425.813 122.621 425.608 L 122.621 425.608 L 122.621 425.608 Q 122.621 423.352 122.382 421.301 L 122.382 421.301 L 122.382 421.301 Q 122.143 419.251 121.425 417.302 L 121.425 417.302 L 121.425 417.302 Q 120.707 415.354 119.374 413.645 L 119.374 413.645 L 119.374 413.645 Q 118.041 411.936 115.785 410.432 Z  M 160.766 449.876 L 134.516 409.202 L 134.516 409.202 Q 134.516 409.407 134.481 410.09 L 134.481 410.09 L 134.481 410.09 Q 134.447 410.774 134.447 411.492 L 134.447 411.492 L 134.447 411.492 Q 134.447 412.21 134.447 412.859 L 134.447 412.859 L 134.447 412.859 Q 134.447 413.508 134.447 413.714 L 134.447 413.714 L 134.447 413.714 Q 134.447 418.157 134.652 422.6 L 134.652 422.6 L 134.652 422.6 Q 134.857 427.044 135.131 431.521 L 135.131 431.521 L 135.131 431.521 Q 135.404 435.999 135.609 440.51 L 135.609 440.51 L 135.609 440.51 Q 135.814 445.022 135.814 449.534 L 135.814 449.534 L 133.354 449.397 L 133.354 449.397 Q 133.285 448.098 133.114 445.774 L 133.114 445.774 L 133.114 445.774 Q 132.943 443.45 132.704 440.408 L 132.704 440.408 L 132.704 440.408 Q 132.465 437.366 132.191 433.88 L 132.191 433.88 L 132.191 433.88 Q 131.918 430.393 131.61 426.804 L 131.61 426.804 L 131.61 426.804 Q 131.303 423.215 131.098 419.729 L 131.098 419.729 L 131.098 419.729 Q 130.893 416.243 130.722 413.269 L 130.722 413.269 L 130.722 413.269 Q 130.551 410.296 130.482 408.006 L 130.482 408.006 L 130.482 408.006 Q 130.414 405.715 130.482 404.485 L 130.482 404.485 L 130.482 404.485 Q 130.482 403.665 131.098 403.118 L 131.098 403.118 L 131.098 403.118 Q 131.713 402.571 132.533 402.571 L 132.533 402.571 L 132.533 402.571 Q 133.354 402.571 134.413 402.947 L 134.413 402.947 L 134.413 402.947 Q 135.473 403.323 135.814 403.938 L 135.814 403.938 L 160.424 443.655 L 160.424 443.655 Q 160.424 440.51 160.253 436.887 L 160.253 436.887 L 160.253 436.887 Q 160.082 433.264 159.945 429.436 L 159.945 429.436 L 159.945 429.436 Q 159.809 425.608 159.774 421.746 L 159.774 421.746 L 159.774 421.746 Q 159.74 417.883 159.911 414.226 L 159.911 414.226 L 159.911 414.226 Q 160.082 410.569 160.595 407.288 L 160.595 407.288 L 160.595 407.288 Q 161.107 404.007 162.064 401.34 L 162.064 401.34 L 162.064 401.34 Q 163.021 400.999 163.568 400.965 L 163.568 400.965 L 163.568 400.965 Q 164.115 400.93 164.389 400.999 L 164.389 400.999 L 164.389 400.999 Q 164.662 401.067 164.696 401.34 L 164.696 401.34 L 164.696 401.34 Q 164.73 401.614 164.73 401.887 L 164.73 401.887 L 164.73 401.887 Q 164.73 402.024 164.73 402.298 L 164.73 402.298 L 164.73 402.298 Q 164.73 402.571 164.73 402.639 L 164.73 402.639 L 164.73 402.639 Q 164.594 403.049 164.423 404.143 L 164.423 404.143 L 164.423 404.143 Q 164.252 405.237 163.979 407.39 L 163.979 407.39 L 163.979 407.39 Q 163.705 409.544 163.5 412.962 L 163.5 412.962 L 163.5 412.962 Q 163.295 416.38 163.09 421.438 L 163.09 421.438 L 163.09 421.438 Q 162.885 426.497 162.782 433.469 L 162.782 433.469 L 162.782 433.469 Q 162.68 440.442 162.748 449.739 L 162.748 449.739 L 160.766 449.876 L 160.766 449.876 Z  M 178.334 407.288 L 178.334 407.288 L 178.334 407.288 Q 180.863 407.288 182.743 408.757 L 182.743 408.757 L 182.743 408.757 Q 184.623 410.227 186.024 412.688 L 186.024 412.688 L 186.024 412.688 Q 187.426 415.149 188.383 418.362 L 188.383 418.362 L 188.383 418.362 Q 189.34 421.575 189.955 425.095 L 189.955 425.095 L 189.955 425.095 Q 190.57 428.616 190.912 432.205 L 190.912 432.205 L 190.912 432.205 Q 191.254 435.794 191.391 438.938 L 191.391 438.938 L 191.391 438.938 Q 191.527 442.083 191.562 444.612 L 191.562 444.612 L 191.562 444.612 Q 191.596 447.141 191.596 448.577 L 191.596 448.577 L 189.955 448.577 L 187.357 434.153 L 187.357 434.153 Q 187.016 433.811 185.819 433.743 L 185.819 433.743 L 185.819 433.743 Q 184.623 433.674 183.017 433.811 L 183.017 433.811 L 183.017 433.811 Q 181.41 433.948 179.53 434.187 L 179.53 434.187 L 179.53 434.187 Q 177.65 434.426 175.976 434.529 L 175.976 434.529 L 175.976 434.529 Q 174.301 434.632 172.934 434.597 L 172.934 434.597 L 172.934 434.597 Q 171.566 434.563 170.951 434.153 L 170.951 434.153 L 170.951 448.577 L 167.465 448.577 L 167.465 448.577 Q 167.465 448.372 167.499 447.791 L 167.499 447.791 L 167.499 447.791 Q 167.533 447.21 167.533 446.594 L 167.533 446.594 L 167.533 446.594 Q 167.533 445.979 167.602 445.432 L 167.602 445.432 L 167.602 445.432 Q 167.67 444.885 167.67 444.68 L 167.67 444.68 L 167.67 444.68 Q 168.08 440.715 168.319 436.648 L 168.319 436.648 L 168.319 436.648 Q 168.559 432.581 168.9 428.753 L 168.9 428.753 L 168.9 428.753 Q 169.242 424.924 169.823 421.438 L 169.823 421.438 L 169.823 421.438 Q 170.404 417.952 171.498 415.115 L 171.498 415.115 L 171.498 415.115 Q 172.592 412.278 174.232 410.261 L 174.232 410.261 L 174.232 410.261 Q 175.873 408.245 178.334 407.288 Z  M 179.428 410.432 L 179.428 410.432 L 179.428 410.432 Q 177.65 410.432 176.454 411.697 L 176.454 411.697 L 176.454 411.697 Q 175.258 412.962 174.506 414.978 L 174.506 414.978 L 174.506 414.978 Q 173.754 416.995 173.344 419.456 L 173.344 419.456 L 173.344 419.456 Q 172.934 421.917 172.797 424.275 L 172.797 424.275 L 172.797 424.275 Q 172.66 426.633 172.626 428.65 L 172.626 428.65 L 172.626 428.65 Q 172.592 430.667 172.592 431.76 L 172.592 431.76 L 172.592 431.76 Q 175.941 431.76 179.428 431.248 L 179.428 431.248 L 179.428 431.248 Q 182.914 430.735 185.99 430.188 L 185.99 430.188 L 185.99 430.188 Q 186.059 429.915 186.093 429.299 L 186.093 429.299 L 186.093 429.299 Q 186.127 428.684 186.161 427.932 L 186.161 427.932 L 186.161 427.932 Q 186.195 427.18 186.229 426.497 L 186.229 426.497 L 186.229 426.497 Q 186.264 425.813 186.264 425.608 L 186.264 425.608 L 186.264 425.608 Q 186.264 423.352 186.024 421.301 L 186.024 421.301 L 186.024 421.301 Q 185.785 419.251 185.067 417.302 L 185.067 417.302 L 185.067 417.302 Q 184.35 415.354 183.017 413.645 L 183.017 413.645 L 183.017 413.645 Q 181.684 411.936 179.428 410.432 Z  M 194.535 412.278 L 194.535 412.278 L 194.535 412.278 Q 194.535 410.09 196.21 408.484 L 196.21 408.484 L 196.21 408.484 Q 197.885 406.878 200.277 405.886 L 200.277 405.886 L 200.277 405.886 Q 202.67 404.895 205.268 404.382 L 205.268 404.382 L 205.268 404.382 Q 207.865 403.87 209.711 403.87 L 209.711 403.87 L 209.711 403.87 Q 211.557 403.87 213.437 404.485 L 213.437 404.485 L 213.437 404.485 Q 215.316 405.1 216.752 406.228 L 216.752 406.228 L 216.752 406.228 Q 218.188 407.356 218.974 409.099 L 218.974 409.099 L 218.974 409.099 Q 219.76 410.842 219.486 413.098 L 219.486 413.098 L 219.486 413.098 Q 219.145 416.585 217.196 419.251 L 217.196 419.251 L 217.196 419.251 Q 215.248 421.917 212.411 423.728 L 212.411 423.728 L 212.411 423.728 Q 209.574 425.54 206.259 426.463 L 206.259 426.463 L 206.259 426.463 Q 202.943 427.385 199.867 427.385 L 199.867 427.385 L 199.867 427.385 Q 199.867 429.915 200.072 432.41 L 200.072 432.41 L 200.072 432.41 Q 200.277 434.905 200.517 437.434 L 200.517 437.434 L 200.517 437.434 Q 200.756 439.964 200.961 442.459 L 200.961 442.459 L 200.961 442.459 Q 201.166 444.954 201.166 447.483 L 201.166 447.483 L 201.166 447.483 Q 201.166 448.235 201.029 448.884 L 201.029 448.884 L 201.029 448.884 Q 200.893 449.534 199.799 449.876 L 199.799 449.876 L 198.432 448.577 L 198.432 448.577 Q 198.432 448.508 198.227 446.663 L 198.227 446.663 L 198.227 446.663 Q 198.021 444.817 197.646 441.878 L 197.646 441.878 L 197.646 441.878 Q 197.27 438.938 196.825 435.213 L 196.825 435.213 L 196.825 435.213 Q 196.381 431.487 195.971 427.727 L 195.971 427.727 L 195.971 427.727 Q 195.561 423.967 195.185 420.481 L 195.185 420.481 L 195.185 420.481 Q 194.809 416.995 194.535 414.465 L 194.535 414.465 L 194.535 414.465 Q 194.535 414.397 194.535 414.124 L 194.535 414.124 L 194.535 414.124 Q 194.535 413.85 194.535 413.508 L 194.535 413.508 L 194.535 413.508 Q 194.535 413.167 194.535 412.825 L 194.535 412.825 L 194.535 412.825 Q 194.535 412.483 194.535 412.278 Z  M 198.363 414.739 L 198.363 414.739 L 198.363 414.739 Q 198.363 416.174 198.397 417.405 L 198.397 417.405 L 198.397 417.405 Q 198.432 418.635 198.603 419.798 L 198.603 419.798 L 198.603 419.798 Q 198.773 420.96 199.047 422.19 L 199.047 422.19 L 199.047 422.19 Q 199.32 423.421 199.799 424.993 L 199.799 424.993 L 199.799 424.993 Q 201.918 424.651 204.857 423.694 L 204.857 423.694 L 204.857 423.694 Q 207.797 422.737 210.497 421.096 L 210.497 421.096 L 210.497 421.096 Q 213.197 419.456 215.043 417.302 L 215.043 417.302 L 215.043 417.302 Q 216.889 415.149 216.889 412.483 L 216.889 412.483 L 216.889 412.483 Q 216.889 411.048 216.205 409.92 L 216.205 409.92 L 216.205 409.92 Q 215.521 408.792 214.462 408.04 L 214.462 408.04 L 214.462 408.04 Q 213.402 407.288 212.104 406.878 L 212.104 406.878 L 212.104 406.878 Q 210.805 406.467 209.574 406.467 L 209.574 406.467 L 209.574 406.467 Q 207.592 406.467 205.575 406.946 L 205.575 406.946 L 205.575 406.946 Q 203.559 407.424 201.952 408.45 L 201.952 408.45 L 201.952 408.45 Q 200.346 409.475 199.354 411.048 L 199.354 411.048 L 199.354 411.048 Q 198.363 412.62 198.363 414.739 Z  M 220.717 402.639 L 220.717 401.819 L 220.717 401.819 Q 220.717 400.999 221.298 400.486 L 221.298 400.486 L 221.298 400.486 Q 221.879 399.973 222.699 399.973 L 222.699 399.973 L 222.699 399.973 Q 222.768 399.973 223.041 399.973 L 223.041 399.973 L 223.041 399.973 Q 223.314 399.973 223.383 399.973 L 223.383 399.973 L 223.383 399.973 Q 223.725 405.715 223.998 410.877 L 223.998 410.877 L 223.998 410.877 Q 224.271 416.038 224.442 421.028 L 224.442 421.028 L 224.442 421.028 Q 224.613 426.018 224.682 430.974 L 224.682 430.974 L 224.682 430.974 Q 224.75 435.93 224.75 441.331 L 224.75 441.331 L 224.75 441.331 Q 224.75 442.083 224.853 443.382 L 224.853 443.382 L 224.853 443.382 Q 224.955 444.68 225.058 445.911 L 225.058 445.911 L 225.058 445.911 Q 225.16 447.141 225.263 448.132 L 225.263 448.132 L 225.263 448.132 Q 225.365 449.124 225.365 449.192 L 225.365 449.192 L 222.426 449.739 L 222.426 449.739 Q 222.289 446.936 222.152 443.279 L 222.152 443.279 L 222.152 443.279 Q 222.016 439.622 221.913 435.486 L 221.913 435.486 L 221.913 435.486 Q 221.811 431.35 221.708 426.941 L 221.708 426.941 L 221.708 426.941 Q 221.605 422.532 221.435 418.225 L 221.435 418.225 L 221.435 418.225 Q 221.264 413.919 221.093 409.92 L 221.093 409.92 L 221.093 409.92 Q 220.922 405.921 220.717 402.639 L 220.717 402.639 L 220.717 402.639 Z " fill-rule="evenodd" fill="rgb(68,75,84)"/></svg>