<?xml version="1.0" standalone="no"?><!-- Generator: Gravit.io --><svg xmlns="http://www.w3.org/2000/svg" xmlns:xlink="http://www.w3.org/1999/xlink" style="isolation:isolate" viewBox="669.309 -54 77.188 77.024" width="77.188" height="77.024"><g><g><g><path d=" M 680.1 -2.7 C 669 -13.9 669 -32 680.1 -43.2 C 691.3 -54.4 709.5 -54.4 720.6 -43.2 C 731.8 -32 731.8 -13.9 720.6 -2.7 C 709.5 8.5 691.3 8.5 680.1 -2.7 Z " fill="rgb(255,255,255)"/></g><g><path d=" M 700.4 3.2 C 699 3.2 697.9 2.1 697.9 0.7 C 697.9 -0.7 699 -1.7 700.4 -1.7 C 706 -1.7 711.4 -3.9 715.5 -7.9 C 720.7 -13.2 722.8 -20.6 721.1 -27.9 C 720.8 -29.2 721.6 -30.5 722.9 -30.8 C 724.2 -31.2 725.5 -30.4 725.8 -29 C 728 -20.1 725.4 -10.9 719 -4.4 C 714 0.5 707.4 3.2 700.4 3.2 Z " fill="rgb(17,204,255)"/><path d=" M 717.3 -37.1 C 716.6 -37.1 716 -37.4 715.5 -37.9 L 715.5 -38 C 714.6 -38.9 714.6 -40.5 715.5 -41.5 C 716.5 -42.5 718 -42.5 719 -41.5 L 719.1 -41.4 C 720 -40.4 720 -38.9 719.1 -37.9 C 718.6 -37.4 717.9 -37.1 717.3 -37.1 Z " fill="rgb(17,204,255)"/></g><path d=" M 700.4 8.1 C 692.5 8.1 684.4 5.1 678.4 -1 C 666.3 -13.1 666.3 -32.8 678.4 -44.9 C 690.5 -57 710.2 -57 722.3 -44.9 C 722.3 -44.9 722.3 -44.9 722.3 -44.9 C 734.5 -32.8 734.5 -13.1 722.4 -1 C 716.4 5.1 708.4 8.1 700.4 8.1 Z  M 700.4 -49.1 C 693.7 -49.1 687 -46.6 681.9 -41.4 C 671.7 -31.2 671.7 -14.6 681.9 -4.3 C 692.1 5.7 708.7 5.7 719 -4.4 C 729.2 -14.6 729.2 -31.3 719 -41.5 C 713.8 -46.6 707.1 -49.1 700.4 -49.1 Z " fill="rgb(68,75,84)"/><path d=" M 744.3 10.5 L 733.9 0.1 C 732.5 -1.3 730.6 -2 728.7 -2 C 727.5 -2 726.5 -1.8 725.5 -1.3 L 723.4 -3.3 C 722.4 -4.3 720.9 -4.3 720 -3.3 C 719 -2.3 719 -0.8 720 0.1 L 722 2.2 C 720.7 4.9 721.2 8.3 723.4 10.5 L 733.9 20.9 C 735.4 22.4 737.3 23 739.1 23 C 741 23 742.9 22.3 744.4 20.9 C 744.4 20.9 744.4 20.9 744.4 20.9 C 745.8 19.5 746.5 17.6 746.5 15.7 C 746.5 13.8 745.7 11.9 744.3 10.5 Z  M 740.8 17.5 C 740.8 17.5 740.8 17.5 740.8 17.5 C 739.9 18.4 738.3 18.4 737.4 17.5 L 726.9 7.1 C 726 6.1 726 4.5 726.9 3.6 C 726.9 3.6 726.9 3.6 726.9 3.6 C 726.9 3.6 726.9 3.6 726.9 3.6 C 727.4 3.1 728 2.9 728.7 2.9 C 729.3 2.9 730 3.1 730.4 3.6 L 740.8 14 C 741.3 14.5 741.5 15.1 741.5 15.7 C 741.5 16.4 741.3 17 740.8 17.5 Z " fill="rgb(68,75,84)"/></g></g></svg>