<svg version="1.1" id="Layer_1" xmlns="http://www.w3.org/2000/svg" xmlns:xlink="http://www.w3.org/1999/xlink" x="0px" y="0px" width="512px" height="512px" viewBox="0 0 512 512" enable-background="new 0 0 512 512" xml:space="preserve">
<g stroke="none" fill="#000000" stroke-width="1px">
	<g stroke="none" fill="#000000" stroke-width="1px">
		<g stroke="none" fill="#000000" stroke-width="1px">
			<path fill="#0070c9" d="M7.9,256C7.9,119,119,7.9,256,7.9C393,7.9,504.1,119,504.1,256c0,137-111.1,248.1-248.1,248.1
				C119,504.1,7.9,393,7.9,256z" stroke="none" stroke-width="1px"></path>
		</g>
	</g>
	<g stroke="none" fill="#000000" stroke-width="1px">
		<path fill="#ffffff" d="M395.6,225.8c-65.1,0-130.3,0-195.4,0c11.6-11.6,23.2-23.2,34.8-34.8c26.8-26.8-14.9-68.2-41.8-41.3
			c-28.3,28.3-56.6,56.6-84.9,84.9c-11.4,11.4-11.1,30.3,0.2,41.5c28.3,28.3,56.6,56.6,84.9,84.9c26.8,26.8,68.2-14.9,41.3-41.8
			c-11.5-11.5-23.1-23.1-34.6-34.6c65,0,130,0,195,0C433.1,284.6,433.4,225.8,395.6,225.8z" stroke="none" stroke-width="1px"></path>
	</g>
</g>
</svg>
