<svg version="1.1" xmlns="http://www.w3.org/2000/svg" xmlns:xlink="http://www.w3.org/1999/xlink" viewBox="0 0 252 252"><g fill="none" fill-rule="nonzero" stroke="none" stroke-width="1px" stroke-linecap="butt" stroke-linejoin="miter" stroke-miterlimit="10" stroke-dasharray="" stroke-dashoffset="0" font-family="none" font-weight="none" font-size="none" text-anchor="none" style="mix-blend-mode: normal"><path d="M0,252v-252h252v252z" fill="none" stroke="none" stroke-width="1px"></path><g stroke="none" fill="none" stroke-width="1px"><g id="surface1" stroke="none" fill="none" stroke-width="1px"><path d="M122.85,85.05v-56.7" fill="none" stroke="#4788c7" stroke-width="1px"></path><path d="M141.75,28.35c0,10.43437 -8.46563,18.9 -18.9,18.9c-10.43438,0 -18.9,-8.46563 -18.9,-18.9c0,-10.43437 8.46562,-18.9 18.9,-18.9c10.43437,0 18.9,8.46562 18.9,18.9z" fill="#90caf9" stroke="none" stroke-width="1px"></path><path d="M122.85,12.6c8.68711,0 15.75,7.06289 15.75,15.75c0,8.68711 -7.06289,15.75 -15.75,15.75c-8.68711,0 -15.75,-7.06289 -15.75,-15.75c0,-8.68711 7.06289,-15.75 15.75,-15.75M122.85,6.3c-12.18164,0 -22.05,9.86836 -22.05,22.05c0,12.18164 9.86836,22.05 22.05,22.05c12.18164,0 22.05,-9.86836 22.05,-22.05c0,-12.18164 -9.86836,-22.05 -22.05,-22.05z" fill="#4788c7" stroke="none" stroke-width="1px"></path><path d="M119.7,242.55c-27.11953,0 -91.35,-8.56406 -91.35,-22.05v-51.28594c0,-49.02187 41.83594,-90.46406 91.35,-90.46406h6.3c49.51406,0 91.35,41.44219 91.35,90.46406v51.28594c0,13.48594 -64.23047,22.05 -91.35,22.05z" fill="#90caf9" stroke="none" stroke-width="1px"></path><path d="M126,81.9c47.81602,0 88.2,39.99023 88.2,87.31406v51.28594c0,0.07383 -1.50117,7.16133 -35.09297,13.41211c-20.32735,3.78985 -43.28789,5.48789 -53.10703,5.48789h-6.3c-9.81914,0 -32.77969,-1.69805 -53.10703,-5.48789c-33.5918,-6.25078 -35.09297,-13.33828 -35.09297,-13.41211v-51.28594c0,-47.32383 40.38398,-87.31406 88.2,-87.31406h6.3M126,75.6h-6.3c-51.35977,0 -94.5,42.2543 -94.5,93.61406v51.28594c0,18.67852 75.82148,25.2 94.5,25.2h6.3c18.67852,0 94.5,-6.52148 94.5,-25.2v-51.28594c0,-51.35977 -43.14023,-93.61406 -94.5,-93.61406z" fill="#4788c7" stroke="none" stroke-width="1px"></path><path d="M78.75,192.15c-13.9043,0 -25.2,-11.2957 -25.2,-25.2c0,-13.9043 11.2957,-25.2 25.2,-25.2h88.2c13.9043,0 25.2,11.2957 25.2,25.2c0,13.9043 -11.2957,25.2 -25.2,25.2z" fill="#ffffff" stroke="none" stroke-width="1px"></path><path d="M166.95,144.9c12.15703,0 22.05,9.89297 22.05,22.05c0,12.15703 -9.89297,22.05 -22.05,22.05h-88.2c-12.15703,0 -22.05,-9.89297 -22.05,-22.05c0,-12.15703 9.89297,-22.05 22.05,-22.05h88.2M166.95,138.6h-88.2c-15.60234,0 -28.35,12.74766 -28.35,28.35c0,15.60235 12.74766,28.35 28.35,28.35h88.2c15.60235,0 28.35,-12.74765 28.35,-28.35c0,-15.60234 -12.74765,-28.35 -28.35,-28.35z" fill="#4788c7" stroke="none" stroke-width="1px"></path><path d="M85.05,166.95c0,3.46992 -2.83008,6.3 -6.3,6.3c-3.46992,0 -6.3,-2.83008 -6.3,-6.3c0,-3.46992 2.83008,-6.3 6.3,-6.3c3.46992,0 6.3,2.83008 6.3,6.3z" fill="#98ccfd" stroke="none" stroke-width="1px"></path><path d="M78.75,163.8c1.74727,0 3.15,1.40273 3.15,3.15c0,1.74727 -1.40273,3.15 -3.15,3.15c-1.74727,0 -3.15,-1.40273 -3.15,-3.15c0,-1.74727 1.40273,-3.15 3.15,-3.15M78.75,157.5c-5.21719,0 -9.45,4.23281 -9.45,9.45c0,5.21719 4.23281,9.45 9.45,9.45c5.21719,0 9.45,-4.23281 9.45,-9.45c0,-5.21719 -4.23281,-9.45 -9.45,-9.45z" fill="#4788c7" stroke="none" stroke-width="1px"></path><path d="M173.25,166.95c0,3.46992 -2.83008,6.3 -6.3,6.3c-3.46992,0 -6.3,-2.83008 -6.3,-6.3c0,-3.46992 2.83008,-6.3 6.3,-6.3c3.46992,0 6.3,2.83008 6.3,6.3z" fill="#98ccfd" stroke="none" stroke-width="1px"></path><path d="M166.95,163.8c1.74727,0 3.15,1.40273 3.15,3.15c0,1.74727 -1.40273,3.15 -3.15,3.15c-1.74727,0 -3.15,-1.40273 -3.15,-3.15c0,-1.74727 1.40273,-3.15 3.15,-3.15M166.95,157.5c-5.21719,0 -9.45,4.23281 -9.45,9.45c0,5.21719 4.23281,9.45 9.45,9.45c5.21719,0 9.45,-4.23281 9.45,-9.45c0,-5.21719 -4.23281,-9.45 -9.45,-9.45z" fill="#4788c7" stroke="none" stroke-width="1px"></path><path d="M226.8,204.75c-5.21719,0 -9.45,-4.23281 -9.45,-9.45v-75.6c0,-5.21719 4.23281,-9.45 9.45,-9.45c5.21719,0 9.45,4.23281 9.45,9.45v75.6c0,5.21719 -4.23281,9.45 -9.45,9.45z" fill="#90caf9" stroke="none" stroke-width="1px"></path><path d="M226.8,113.4c3.46992,0 6.3,2.83008 6.3,6.3v75.6c0,3.46992 -2.83008,6.3 -6.3,6.3c-3.46992,0 -6.3,-2.83008 -6.3,-6.3v-75.6c0,-3.46992 2.83008,-6.3 6.3,-6.3M226.8,107.1c-6.96445,0 -12.6,5.63555 -12.6,12.6v75.6c0,6.96445 5.63555,12.6 12.6,12.6c6.96445,0 12.6,-5.63555 12.6,-12.6v-75.6c0,-6.96445 -5.63555,-12.6 -12.6,-12.6z" fill="#4788c7" stroke="none" stroke-width="1px"></path><path d="M18.9,204.75c-5.21719,0 -9.45,-4.23281 -9.45,-9.45v-75.6c0,-5.21719 4.23281,-9.45 9.45,-9.45c5.21719,0 9.45,4.23281 9.45,9.45v75.6c0,5.21719 -4.23281,9.45 -9.45,9.45z" fill="#90caf9" stroke="none" stroke-width="1px"></path><path d="M18.9,113.4c3.46992,0 6.3,2.83008 6.3,6.3v75.6c0,3.46992 -2.83008,6.3 -6.3,6.3c-3.46992,0 -6.3,-2.83008 -6.3,-6.3v-75.6c0,-3.46992 2.83008,-6.3 6.3,-6.3M18.9,107.1c-6.93984,0 -12.6,5.66016 -12.6,12.6v75.6c0,6.93985 5.66016,12.6 12.6,12.6c6.93985,0 12.6,-5.66015 12.6,-12.6v-75.6c0,-6.93984 -5.66015,-12.6 -12.6,-12.6z" fill="#4788c7" stroke="none" stroke-width="1px"></path></g></g></g></svg>