<svg xmlns="http://www.w3.org/2000/svg" xmlns:xlink="http://www.w3.org/1999/xlink" viewBox="0 0 48 48" version="1.1">
<g id="surface1" stroke="none" fill="#f44336" stroke-width="1px">
<path style="" d="M 39 43 L 9 43 C 6.800781 43 5 41.199219 5 39 L 5 9 C 5 6.800781 6.800781 5 9 5 L 39 5 C 41.199219 5 43 6.800781 43 9 L 43 39 C 43 41.199219 41.199219 43 39 43 " stroke="none" fill="#3f51b5" stroke-width="1px"></path>
<path style="" d="M 33.601563 25.398438 C 33.699219 25 33.699219 24.5 33.699219 24 C 33.699219 23.5 33.699219 23.101563 33.601563 22.601563 L 36.398438 20.601563 C 36.699219 20.398438 36.800781 20 36.601563 19.699219 L 33.898438 15.101563 C 33.699219 14.800781 33.398438 14.699219 33.101563 14.800781 L 30 16.300781 C 29.300781 15.699219 28.5 15.300781 27.601563 14.898438 L 27.300781 11.5 C 27.300781 11.199219 27 10.898438 26.699219 10.898438 L 21.398438 10.898438 C 21.101563 10.898438 20.800781 11.199219 20.800781 11.5 L 20.398438 15 C 19.5 15.300781 18.800781 15.800781 18 16.398438 L 14.898438 15 C 14.601563 14.898438 14.199219 15 14.101563 15.300781 L 11.398438 19.898438 C 11.199219 20.199219 11.300781 20.601563 11.601563 20.800781 L 14.398438 22.800781 C 14.300781 23.199219 14.300781 23.699219 14.300781 24.199219 C 14.300781 24.699219 14.300781 25.101563 14.398438 25.601563 L 11.601563 27.601563 C 11.300781 27.800781 11.300781 28.199219 11.398438 28.5 L 14.101563 33.101563 C 14.300781 33.398438 14.601563 33.5 14.898438 33.398438 L 18 32 C 18.699219 32.601563 19.5 33 20.398438 33.398438 L 20.699219 36.800781 C 20.699219 37.101563 21 37.398438 21.300781 37.398438 L 26.601563 37.398438 C 26.898438 37.398438 27.199219 37.101563 27.199219 36.800781 L 27.5 33.398438 C 28.398438 33.101563 29.101563 32.601563 29.898438 32 L 33 33.398438 C 33.300781 33.5 33.699219 33.398438 33.800781 33.101563 L 36.5 28.5 C 36.699219 28.199219 36.601563 27.800781 36.300781 27.601563 Z M 24 29 C 21.199219 29 19 26.800781 19 24 C 19 21.199219 21.199219 19 24 19 C 26.800781 19 29 21.199219 29 24 C 29 26.800781 26.800781 29 24 29 " stroke="none" fill="#b3e5fc" stroke-width="1px"></path>
</g>
</svg>