<svg xmlns="http://www.w3.org/2000/svg" xmlns:xlink="http://www.w3.org/1999/xlink" viewBox="0 0 48 48" version="1.1">
<g id="surface1" stroke="none" fill="#000000" stroke-width="1px">
<path style="" d="M 42 12.296875 L 40.238281 9.128906 L 35.761719 10.476563 L 34.847656 6 L 31.152344 6 L 30.242188 10.445313 L 25.804688 9.078125 L 24.019531 12.230469 L 27.359375 14.976563 L 24 17.703125 L 25.761719 20.867188 L 30.238281 19.523438 L 31.152344 24 L 34.847656 24 L 35.757813 19.554688 L 40.191406 20.921875 L 41.976563 17.769531 L 38.640625 15.019531 Z M 37.617188 15 C 37.617188 17.484375 35.550781 19.5 33 19.5 C 30.449219 19.5 28.382813 17.484375 28.382813 15 C 28.382813 12.515625 30.449219 10.5 33 10.5 C 35.550781 10.5 37.617188 12.515625 37.617188 15 Z " stroke="none" fill="#3f51b5" stroke-width="1px"></path>
<path style="" d="M 39.5 15 C 39.5 11.410156 36.589844 8.5 33 8.5 C 29.410156 8.5 26.5 11.410156 26.5 15 C 26.5 18.589844 29.410156 21.5 33 21.5 C 36.589844 21.5 39.5 18.589844 39.5 15 Z M 36 15 C 36 16.65625 34.65625 18 33 18 C 31.34375 18 30 16.65625 30 15 C 30 13.34375 31.34375 12 33 12 C 34.65625 12 36 13.34375 36 15 Z " stroke="none" fill="#3f51b5" stroke-width="1px"></path>
<path style="" d="M 28 27.695313 L 25.851563 23.824219 L 20.378906 25.46875 L 19.257813 20 L 14.742188 20 L 13.628906 25.433594 L 8.207031 23.761719 L 6.023438 27.617188 L 10.105469 30.976563 L 6 34.304688 L 8.148438 38.175781 L 13.621094 36.53125 L 14.742188 42 L 19.257813 42 L 20.371094 36.566406 L 25.792969 38.238281 L 27.972656 34.382813 L 23.890625 31.023438 Z M 22.644531 31 C 22.644531 34.039063 20.117188 36.5 17 36.5 C 13.882813 36.5 11.355469 34.039063 11.355469 31 C 11.355469 27.960938 13.882813 25.5 17 25.5 C 20.117188 25.5 22.644531 27.960938 22.644531 31 Z " stroke="none" fill="#2196f3" stroke-width="1px"></path>
<path style="" d="M 25 31 C 25 26.582031 21.417969 23 17 23 C 12.582031 23 9 26.582031 9 31 C 9 35.417969 12.582031 39 17 39 C 21.417969 39 25 35.417969 25 31 Z M 21 31 C 21 33.210938 19.210938 35 17 35 C 14.789063 35 13 33.210938 13 31 C 13 28.789063 14.789063 27 17 27 C 19.210938 27 21 28.789063 21 31 Z " stroke="none" fill="#2196f3" stroke-width="1px"></path>
</g>
</svg>