<svg xmlns="http://www.w3.org/2000/svg" xmlns:xlink="http://www.w3.org/1999/xlink" viewBox="0 0 48 48" version="1.1">
<g id="surface1" stroke="none" fill="#000000" stroke-width="1px">
<path style="" d="M 37 18 L 43 18 L 43 42 L 37 42 Z " stroke="none" fill="#00bcd4" stroke-width="1px"></path>
<path style="" d="M 29 26 L 35 26 L 35 42 L 29 42 Z " stroke="none" fill="#00bcd4" stroke-width="1px"></path>
<path style="" d="M 21 22 L 27 22 L 27 42 L 21 42 Z " stroke="none" fill="#00bcd4" stroke-width="1px"></path>
<path style="" d="M 13 32 L 19 32 L 19 42 L 13 42 Z " stroke="none" fill="#00bcd4" stroke-width="1px"></path>
<path style="" d="M 5 28 L 11 28 L 11 42 L 5 42 Z " stroke="none" fill="#00bcd4" stroke-width="1px"></path>
<path style="" d="M 11 16 C 11 17.65625 9.65625 19 8 19 C 6.34375 19 5 17.65625 5 16 C 5 14.34375 6.34375 13 8 13 C 9.65625 13 11 14.34375 11 16 Z " stroke="none" fill="#3f51b5" stroke-width="1px"></path>
<path style="" d="M 19 18 C 19 19.65625 17.65625 21 16 21 C 14.34375 21 13 19.65625 13 18 C 13 16.34375 14.34375 15 16 15 C 17.65625 15 19 16.34375 19 18 Z " stroke="none" fill="#3f51b5" stroke-width="1px"></path>
<path style="" d="M 27 11 C 27 12.65625 25.65625 14 24 14 C 22.34375 14 21 12.65625 21 11 C 21 9.34375 22.34375 8 24 8 C 25.65625 8 27 9.34375 27 11 Z " stroke="none" fill="#3f51b5" stroke-width="1px"></path>
<path style="" d="M 35 13 C 35 14.65625 33.65625 16 32 16 C 30.34375 16 29 14.65625 29 13 C 29 11.34375 30.34375 10 32 10 C 33.65625 10 35 11.34375 35 13 Z " stroke="none" fill="#3f51b5" stroke-width="1px"></path>
<path style="" d="M 43 9 C 43 10.65625 41.65625 12 40 12 C 38.34375 12 37 10.65625 37 9 C 37 7.34375 38.34375 6 40 6 C 41.65625 6 43 7.34375 43 9 Z " stroke="none" fill="#3f51b5" stroke-width="1px"></path>
<path style="" d="M 39.101563 7.199219 L 31.800781 10.898438 L 23.5 8.800781 L 15.5 15.800781 L 8.5 14.101563 L 7.5 17.898438 L 16.5 20.199219 L 24.5 13.199219 L 32.199219 15.101563 L 40.898438 10.800781 Z " stroke="none" fill="#3f51b5" stroke-width="1px"></path>
</g>
</svg>